<svg xmlns="http://www.w3.org/2000/svg" width="168.429" height="168.429" viewBox="0 0 168.429 168.429">
  <g id="quote" transform="translate(0 2.89) rotate(-1)">
    <path id="Tracé_1659" data-name="Tracé 1659" d="M134.521,165.565H31.043A31.042,31.042,0,0,1,0,134.521V31.043A31.042,31.042,0,0,1,31.043,0H134.521a31.042,31.042,0,0,1,31.043,31.043V134.521A31.042,31.042,0,0,1,134.521,165.565Zm0,0" fill="#e3f8fa"/>
    <path id="Tracé_1660" data-name="Tracé 1660" d="M296.3,170.672H285.953a8.636,8.636,0,0,0-8.625,8.625v10.348a8.635,8.635,0,0,0,8.625,8.62H296.3a8.58,8.58,0,0,0,1.723-.176v7.072a13.815,13.815,0,0,1-13.8,13.8h-3.446a3.451,3.451,0,0,0,0,6.9h3.451a20.716,20.716,0,0,0,20.7-20.7V179.3a8.639,8.639,0,0,0-8.625-8.625Zm0,0" transform="translate(-187.649 -115.482)" fill="#26c6da"/>
    <path id="Tracé_1661" data-name="Tracé 1661" d="M168.3,170.672H157.953a8.636,8.636,0,0,0-8.625,8.625v10.348a8.632,8.632,0,0,0,8.625,8.62H168.3a8.58,8.58,0,0,0,1.723-.176v7.072a13.815,13.815,0,0,1-13.8,13.8h-3.446a3.451,3.451,0,1,0,0,6.9h3.451a20.716,20.716,0,0,0,20.7-20.7V179.3a8.639,8.639,0,0,0-8.625-8.625Zm0,0" transform="translate(-101.04 -115.482)" fill="#8ce1eb"/>
  </g>
</svg>
